<?xml version="1.0" standalone="no"?>
<!DOCTYPE svg PUBLIC "-//W3C//DTD SVG 20010904//EN"
 "http://www.w3.org/TR/2001/REC-SVG-20010904/DTD/svg10.dtd">
<svg version="1.0" xmlns="http://www.w3.org/2000/svg"
 width="655.000000pt" height="655.000000pt" viewBox="0 0 655.000000 655.000000"
 preserveAspectRatio="xMidYMid meet">
<metadata>
Created by potrace 1.11, written by Peter Selinger 2001-2013
</metadata>
<g transform="translate(0.000000,655.000000) scale(0.100000,-0.100000)"
fill="#000000" stroke="none">
<path d="M1099 6392 c-6 -76 -4 -3021 2 -3033 7 -13 83 -15 696 -15 l688 1 5
650 5 650 105 -3 c58 -2 121 -6 140 -8 19 -2 64 -6 100 -9 36 -3 81 -8 100
-10 19 -3 64 -8 100 -11 36 -4 75 -10 87 -15 19 -7 24 -4 30 19 7 27 11 885 4
955 -2 24 -8 37 -18 37 -8 0 -42 13 -76 29 -153 71 -198 91 -202 91 -4 0 -62
25 -170 75 -84 38 -117 52 -200 85 -44 17 -104 43 -133 56 -29 13 -58 24 -65
24 -7 0 -17 4 -22 8 -6 5 -59 28 -120 51 -129 50 -130 51 -215 85 -36 14 -69
26 -75 26 -5 1 -28 9 -50 20 -22 10 -43 16 -47 14 -5 -3 -8 0 -8 5 0 6 -9 11
-19 11 -11 0 -23 5 -26 10 -3 6 -17 10 -30 10 -13 0 -25 4 -27 10 -1 5 -15 11
-30 12 -16 1 -28 5 -28 8 0 4 -23 13 -51 20 -27 8 -52 18 -55 22 -3 4 -15 8
-28 8 -12 0 -26 4 -31 8 -6 5 -44 19 -85 33 -41 13 -76 27 -78 32 -2 4 -12 7
-22 7 -9 0 -35 7 -56 16 -73 31 -94 34 -95 16z"/>
<path d="M5285 6379 c-27 -11 -81 -30 -120 -44 -38 -13 -108 -38 -155 -55
-167 -61 -255 -92 -277 -97 -13 -3 -23 -9 -23 -14 0 -5 -6 -9 -12 -9 -12 0
-191 -66 -273 -101 -16 -6 -37 -13 -45 -15 -8 -2 -23 -7 -35 -13 -11 -6 -60
-27 -110 -47 -100 -40 -128 -52 -197 -83 -26 -11 -54 -21 -61 -21 -7 0 -17 -4
-22 -9 -6 -5 -35 -18 -65 -29 -30 -11 -68 -27 -85 -35 -16 -8 -88 -41 -159
-72 -71 -31 -159 -70 -195 -87 -36 -16 -80 -36 -97 -44 -18 -8 -34 -20 -36
-26 -4 -11 -3 -958 1 -981 0 -5 20 -6 44 -3 84 11 133 17 182 21 28 3 68 8 90
10 22 3 78 7 125 10 47 3 111 8 143 10 32 2 64 2 70 -1 9 -3 12 -158 12 -640
0 -350 3 -641 7 -647 8 -14 1359 -19 1380 -6 9 6 12 341 13 1516 0 829 -1
1514 -3 1521 -6 17 -38 14 -97 -9z"/>
<path d="M1099 3188 c-4 -8 -4 -3026 -1 -3041 5 -18 20 -17 67 3 11 4 52 19
90 31 39 13 75 26 80 30 6 3 31 12 58 20 26 7 47 17 47 22 0 4 4 6 8 3 5 -3
55 12 111 34 56 21 105 39 109 41 13 4 47 17 77 30 17 7 36 13 43 15 7 1 72
26 145 54 73 28 179 70 237 92 58 23 109 45 115 50 5 4 17 8 27 8 10 0 18 4
18 8 0 5 6 9 13 9 13 1 266 105 370 152 34 16 87 39 117 52 30 12 58 28 62 33
4 6 8 8 8 4 0 -7 106 39 209 90 l55 27 -1 460 c-1 253 -2 474 -2 492 -1 38
-14 42 -91 31 -83 -12 -221 -27 -305 -34 -143 -10 -202 -15 -225 -18 -52 -7
-50 -39 -50 655 l0 649 -695 0 c-382 0 -696 -1 -696 -2z"/>
<path d="M3989 3183 c-1 -5 -2 -294 -3 -643 -1 -349 -5 -640 -9 -647 -4 -6
-17 -10 -29 -8 -12 3 -71 7 -132 10 -61 4 -124 8 -141 11 -37 6 -105 13 -165
18 -25 2 -55 6 -66 9 -34 8 -109 11 -119 5 -8 -5 -13 -921 -6 -983 0 -6 16
-16 34 -23 17 -7 40 -18 49 -23 10 -5 25 -9 33 -9 8 0 15 -4 15 -10 0 -5 6
-10 13 -10 7 0 31 -9 53 -19 21 -10 86 -40 144 -66 58 -26 123 -55 145 -65 22
-10 76 -32 120 -50 44 -17 96 -38 115 -47 19 -8 44 -19 55 -23 11 -4 36 -15
55 -23 19 -9 60 -25 90 -37 30 -12 69 -28 85 -35 17 -7 93 -37 170 -65 77 -29
159 -61 182 -71 24 -11 46 -19 50 -19 5 0 40 -13 78 -28 39 -16 113 -43 165
-61 52 -18 104 -36 115 -41 11 -5 49 -18 85 -30 36 -12 74 -25 85 -30 42 -19
118 -40 123 -35 4 3 7 2977 3 3043 -1 9 -147 12 -696 12 -382 0 -696 -3 -696
-7z"/>
</g>
</svg>
